<?xml version="1.0" encoding="UTF-8"?>
<svg id="Layer_2" data-name="Layer 2" xmlns="http://www.w3.org/2000/svg" xmlns:xlink="http://www.w3.org/1999/xlink" viewBox="0 0 266.54 239.34">
  <defs>
    <style>
      .cls-1 {
        fill: url(#linear-gradient-2);
      }

      .cls-2 {
        fill: #fff;
      }

      .cls-3 {
        fill: #c49f02;
      }

      .cls-4 {
        opacity: .2;
      }

      .cls-4, .cls-5, .cls-6 {
        fill: #02091e;
      }

      .cls-7 {
        fill: #fcca00;
      }

      .cls-8 {
        fill: #021e73;
      }

      .cls-9 {
        opacity: .28;
      }

      .cls-10 {
        fill: url(#linear-gradient);
      }

      .cls-6 {
        opacity: .49;
      }
    </style>
    <linearGradient id="linear-gradient" x1="49.2" y1="16.11" x2="148.48" y2="107.46" gradientTransform="translate(-3.32 4.39) rotate(-.05)" gradientUnits="userSpaceOnUse">
      <stop offset=".07" stop-color="#fcca00"/>
      <stop offset=".13" stop-color="#e7ba02"/>
      <stop offset=".18" stop-color="#d6ae04"/>
      <stop offset=".23" stop-color="#d1aa05"/>
    </linearGradient>
    <linearGradient id="linear-gradient-2" x1="81.43" y1="42.43" x2="56.23" y2="11.55" gradientTransform="translate(-3.42 4.39) rotate(-.05)" gradientUnits="userSpaceOnUse">
      <stop offset=".21" stop-color="#fcca00"/>
      <stop offset=".37" stop-color="#e7ba02"/>
      <stop offset=".55" stop-color="#d6ae04"/>
      <stop offset=".69" stop-color="#d1aa05"/>
    </linearGradient>
  </defs>
  <g id="Layer_1-2" data-name="Layer 1">
    <g>
      <rect class="cls-8" x="31.37" y=".07" width="170.16" height="170.16"/>
      <g>
        <rect class="cls-10" x="48" y="15.57" width="169.83" height="170.16"/>
        <polygon class="cls-7" points="218.09 185.66 47.93 185.79 47.86 53.05 87.71 15.61 217.95 15.5 218.09 185.66"/>
        <path class="cls-3" d="M87.47,15.68c-.11.04-39.97,17.43-39.5,39.52,0,0,14.88-11.07,36.34-3.67,0,0-2.07-26.68,3.16-35.85Z"/>
        <path class="cls-1" d="M87.81,15.61s-35.59,10.88-39.83,37.43c0,0,13.52-10.53,34.98-3.13,0,0-1-30.23,4.85-34.3Z"/>
      </g>
      <path class="cls-5" d="M42.04,75.2h35.79v5.94h-35.44c-1.32,0-2.39-1.07-2.39-2.39v-1.51c0-1.12.91-2.04,2.04-2.04Z" transform="translate(25.88 -13.97) rotate(17.28)"/>
      <path class="cls-4" d="M170.25,53.63c-16.22,0-29.55,12.37-31.04,28.2h-18.1c-1.49-15.83-14.82-28.2-31.03-28.2-14.82,0-27.22,10.33-30.39,24.19l-8.97-2.79c-1.08-.33-2.22.27-2.55,1.34l-.45,1.45c-.39,1.25.31,2.59,1.57,2.98l9.63,3c0,.33-.02.67-.02,1,0,17.22,13.96,31.18,31.18,31.18,16.21,0,29.54-12.38,31.03-28.21h18.1c1.49,15.83,14.82,28.21,31.04,28.21,17.22,0,31.18-13.96,31.18-31.18s-13.96-31.17-31.18-31.17ZM63.2,84.24l1.29,1.29-1.32-.41c0-.3,0-.59.03-.88ZM144.06,81.83h-.48c.01-.15.03-.29.05-.43l.43.43h.12v.12l-.12-.12Z"/>
      <path class="cls-6" d="M64.32,86.55l-1.32-.41c0-.3,0-.59.03-.88l1.29,1.29Z"/>
      <path class="cls-5" d="M188.28,87.03l34.82-10.83c1.24-.39,1.93-1.71,1.55-2.95l-.3-.97c-.42-1.35-1.86-2.1-3.21-1.68l-33.65,10.53.8,5.9Z"/>
      <path class="cls-5" d="M168.35,129.33c.01,15.91-15.78,28.82-35.28,28.84-19.49.02-35.31-12.87-35.32-28.78,0-.02,0-.03,0-.05,0-1.1,1.53-1.38,1.96-.37,4.82,11.24,17.94,19.29,33.35,19.28,15.42-.01,28.52-8.09,33.32-19.33.43-1.02,1.96-.74,1.96.36,0,.02,0,.03,0,.05Z"/>
      <path class="cls-7" d="M49,110.33v15.01s-20.47,0-20.47,0c-5.78,0-11.55-1.24-16.65-3.97-3.34-1.79-6.31-4.11-8.39-7.16h0c-4.72-8.38-4.64-18.63.21-26.94l5.29-9.07c.42-.72.63-1.54.56-2.37-.47-5.88,3.31-11.43,9.2-13.01,6.65-1.78,13.48,2.16,15.27,8.81,1.78,6.65-2.16,13.49-8.81,15.27-1.13.3-2.27.44-3.39.43-1.57-.02-3.05.74-3.84,2.1h0c-3.61,6.24-4.59,15.8,1.62,19.45,2.87,1.68,8.92,1.44,11.58,1.44h17.83Z"/>
      <path class="cls-7" d="M217.59,109.99l.08,15.01,20.47-.11c5.78-.03,11.54-1.3,16.63-4.06,3.33-1.81,6.28-4.14,8.36-7.2h0c4.67-8.4,4.54-18.65-.34-26.93l-5.33-9.04c-.42-.72-.63-1.54-.57-2.37.44-5.88-3.36-11.42-9.26-12.96-6.66-1.75-13.47,2.23-15.22,8.89-1.75,6.66,2.23,13.48,8.89,15.22,1.13.3,2.27.43,3.39.41,1.57-.03,3.06.72,3.85,2.08h0c3.64,6.22,4.66,15.77-1.53,19.45-2.86,1.7-8.91,1.49-11.57,1.5l-17.83.09Z"/>
      <path class="cls-7" d="M93.27,231.77c-1.9,6.03-11.91,8.26-22.36,4.98-10.46-3.29-17.41-10.84-15.51-16.87,1.9-6.03,11.9-8.26,22.36-4.98,1.65.52,3.21,1.14,4.66,1.86l17.31-52.71,14.15,4.65-20.36,62h0c-.05.36-.13.72-.24,1.08Z"/>
      <path class="cls-7" d="M189.23,237.81c-10.45,3.29-20.47,1.08-22.37-4.96-.16-.48-.25-.98-.28-1.48l-13.06-62.43,14.57-3.05,10.75,51.39c1.12-.49,2.28-.92,3.5-1.31,10.45-3.3,20.47-1.09,22.37,4.95,1.9,6.03-5.03,13.59-15.48,16.89Z"/>
      <g class="cls-9">
        <polygon class="cls-5" points="144.01 82.85 144.01 82.97 143.89 82.85 144.01 82.85"/>
        <g>
          <path class="cls-5" d="M64.32,86.55l-1.32-.41c0-.3,0-.59.03-.88l1.29,1.29Z"/>
          <path class="cls-2" d="M64.32,86.55l-1.32-.41c0-.3,0-.59.03-.88l1.29,1.29Z"/>
        </g>
        <g>
          <path class="cls-5" d="M143.46,82.42l.43.43h-.48c.01-.15.03-.29.05-.43Z"/>
          <polygon class="cls-5" points="144.01 82.85 144.01 82.97 143.89 82.85 144.01 82.85"/>
          <path class="cls-2" d="M143.46,82.42l.43.43h-.48c.01-.15.03-.29.05-.43Z"/>
          <polygon class="cls-2" points="144.01 82.85 144.01 82.97 143.89 82.85 144.01 82.85"/>
          <path class="cls-5" d="M143.89,82.85h-.48c.01-.15.03-.29.05-.43l.43.43Z"/>
        </g>
      </g>
      <g>
        <rect class="cls-5" x="119.61" y="79.29" width="27.46" height="5.94"/>
        <g>
          <circle class="cls-5" cx="92.96" cy="82.26" r="31.18"/>
          <path class="cls-2" d="M96.19,59.02c-.47,0-.95.02-1.43.05-13.74.86-24.85,12.15-25.5,25.9,0,.15-.01.31-.02.46-.06,1.92-2.89,2.06-3.07.15-.09-.88-.13-1.77-.13-2.67,0-15.07,12.21-27.3,27.3-27.3,1.04,0,2.06.06,3.07.17,2.02.23,1.81,3.21-.22,3.23Z"/>
          <g>
            <rect class="cls-5" x="69.38" y="72.81" width="2.19" height="10.7" transform="translate(-34.62 72.72) rotate(-45)"/>
            <rect class="cls-5" x="67.92" y="77.73" width="2.19" height="10.7" transform="translate(-38.53 73.13) rotate(-45)"/>
          </g>
        </g>
        <g>
          <circle class="cls-5" cx="173.13" cy="82.26" r="31.18"/>
          <path class="cls-2" d="M176.37,59.02c-.14,0-.27,0-.41,0-14.16.37-25.88,11.85-26.53,26.01,0,.13-.01.26-.01.38-.06,1.95-2.9,2.04-3.08.09-.08-.86-.12-1.72-.12-2.6,0-15.07,12.21-27.3,27.3-27.3,1.04,0,2.06.06,3.06.17,2.02.23,1.82,3.21-.21,3.23Z"/>
          <g>
            <rect class="cls-5" x="149.55" y="72.81" width="2.19" height="10.7" transform="translate(-11.14 129.41) rotate(-45)"/>
            <rect class="cls-5" x="148.09" y="77.73" width="2.19" height="10.7" transform="translate(-15.05 129.83) rotate(-45)"/>
          </g>
        </g>
      </g>
    </g>
  </g>
</svg>