<?xml version="1.0" encoding="UTF-8"?>
<svg id="Layer_2" data-name="Layer 2" xmlns="http://www.w3.org/2000/svg" xmlns:xlink="http://www.w3.org/1999/xlink" viewBox="0 0 263.24 256.12">
  <defs>
    <style>
      .cls-1 {
        fill: url(#linear-gradient-2);
      }

      .cls-2 {
        fill: #fff;
      }

      .cls-3 {
        fill: #c49f02;
      }

      .cls-4 {
        opacity: .2;
      }

      .cls-4, .cls-5, .cls-6 {
        fill: #02091e;
      }

      .cls-7 {
        fill: #fcca00;
      }

      .cls-8 {
        fill: #021e73;
      }

      .cls-9 {
        opacity: .28;
      }

      .cls-10 {
        fill: url(#linear-gradient);
      }

      .cls-6 {
        opacity: .49;
      }
    </style>
    <linearGradient id="linear-gradient" x1="51.44" y1="26.38" x2="150.72" y2="117.73" gradientTransform="translate(-7.13 4.38)" gradientUnits="userSpaceOnUse">
      <stop offset=".07" stop-color="#fcca00"/>
      <stop offset=".13" stop-color="#e7ba02"/>
      <stop offset=".18" stop-color="#d6ae04"/>
      <stop offset=".23" stop-color="#d1aa05"/>
    </linearGradient>
    <linearGradient id="linear-gradient-2" x1="83.08" y1="52.7" x2="57.88" y2="21.82" gradientTransform="translate(-23.13 30.07) rotate(-10.05)" gradientUnits="userSpaceOnUse">
      <stop offset=".21" stop-color="#fcca00"/>
      <stop offset=".37" stop-color="#e7ba02"/>
      <stop offset=".55" stop-color="#d6ae04"/>
      <stop offset=".69" stop-color="#d1aa05"/>
    </linearGradient>
  </defs>
  <g id="Layer_1-2" data-name="Layer 1">
    <g>
      <rect class="cls-8" x="27.28" y="13.54" width="170.16" height="170.16" transform="translate(-15.48 21.11) rotate(-10.05)"/>
      <g>
        <rect class="cls-10" x="46.35" y="25.94" width="169.83" height="170.16" transform="translate(-17.35 24.6) rotate(-10.05)"/>
        <polygon class="cls-7" points="229.9 179.95 62.36 209.63 39.24 78.91 71.97 35.13 200.22 12.4 229.9 179.95"/>
        <path class="cls-3" d="M71.75,35.24c-.1.06-36.33,24.11-32.04,45.78,0,0,12.73-13.49,35.15-9.93,0,0-6.68-25.92-3.12-35.85Z"/>
        <path class="cls-1" d="M72.07,35.11s-33.16,16.9-32.73,43.78c0,0,11.49-12.72,33.91-9.15,0,0-6.23-29.6-1.18-34.63Z"/>
      </g>
      <path class="cls-5" d="M37.6,98.77h35.79v5.94h-35.44c-1.32,0-2.39-1.07-2.39-2.39v-1.51c0-1.12.91-2.04,2.04-2.04Z" transform="translate(13.33 -6.08) rotate(7.28)"/>
      <path class="cls-4" d="M159.87,58.24c-15.97,2.82-26.95,17.31-25.67,33.16l-17.83,3.14c-4.22-15.33-19.49-25.2-35.46-22.38-14.59,2.57-25.01,14.9-25.73,29.1l-9.32-1.19c-1.12-.14-2.14.65-2.28,1.76l-.19,1.51c-.17,1.3.76,2.5,2.06,2.66l10,1.28c.05.33.1.66.15.99,2.99,16.96,19.16,28.28,36.12,25.29,15.96-2.81,26.94-17.32,25.66-33.17l17.83-3.14c4.22,15.33,19.49,25.21,35.47,22.39,16.96-2.99,28.28-19.16,25.29-36.12s-19.16-28.27-36.12-25.28ZM59.76,106.97l1.49,1.05-1.37-.17c-.05-.3-.1-.58-.12-.87ZM138.97,90.56l-.47.08c-.02-.15-.02-.29-.03-.43l.5.35.12-.02.02.12-.14-.1Z"/>
      <path class="cls-6" d="M61.26,109.05l-1.37-.17c-.05-.3-.1-.58-.12-.87l1.49,1.05Z"/>
      <path class="cls-5" d="M183.42,88l32.41-16.71c1.16-.6,1.61-2.02,1.01-3.18l-.47-.91c-.65-1.26-2.19-1.75-3.45-1.1l-31.31,16.21,1.81,5.68Z"/>
      <path class="cls-5" d="M171.14,133.12c2.78,15.67-10.53,31.12-29.73,34.53-19.19,3.4-37.01-6.54-39.78-22.21,0-.02,0-.03,0-.05-.19-1.09,1.27-1.63,1.87-.7,6.7,10.23,21.02,15.88,36.19,13.19,15.18-2.69,26.68-12.91,29.46-24.82.25-1.08,1.8-1.07,2,.02,0,.02,0,.03,0,.05Z"/>
      <path class="cls-7" d="M50.3,135.13l2.6,14.78-20.16,3.55c-5.7,1-11.59.78-17.09-1.02-3.6-1.18-6.92-2.95-9.51-5.59h0C.05,139.41-1.65,129.3,1.68,120.28l3.63-9.85c.29-.78.35-1.63.14-2.43-1.48-5.71,1.27-11.83,6.8-14.41,6.24-2.91,13.65-.21,16.57,6.03,2.91,6.24.21,13.66-6.03,16.57-1.06.49-2.16.83-3.26,1.01-1.55.26-2.88,1.26-3.42,2.74h0c-2.47,6.77-1.77,16.35,4.98,18.87,3.11,1.16,9.03-.13,11.66-.59l17.56-3.09Z"/>
      <path class="cls-7" d="M216.27,105.52l2.68,14.77,20.14-3.66c5.69-1.03,11.14-3.28,15.67-6.88,2.97-2.36,5.47-5.17,6.98-8.54h0c3.14-9.09,1.24-19.16-5.01-26.47l-6.82-7.98c-.54-.63-.89-1.41-.98-2.24-.59-5.87-5.29-10.66-11.37-11.16-6.86-.56-12.88,4.53-13.45,11.4-.56,6.86,4.54,12.89,11.4,13.45,1.17.1,2.31.03,3.41-.18,1.55-.3,3.14.18,4.15,1.38h0c4.66,5.49,7.33,14.72,1.87,19.42-2.52,2.17-8.52,3.01-11.14,3.49l-17.54,3.19Z"/>
      <path class="cls-7" d="M114.99,247.04c-.82,6.27-10.3,10.2-21.16,8.79-10.87-1.42-19.02-7.65-18.2-13.92.82-6.27,10.29-10.2,21.16-8.79,1.72.23,3.36.56,4.91,1.02l7.89-54.92,14.74,2.12-9.28,64.6h0c.02.36,0,.74-.05,1.1Z"/>
      <path class="cls-7" d="M210.54,236.32c-9.72,5.06-19.97,4.62-22.89-1-.24-.45-.41-.92-.53-1.41l-23.71-59.21,13.82-5.53,19.51,48.74c1.02-.67,2.09-1.31,3.22-1.9,9.72-5.07,19.97-4.63,22.89.99,2.92,5.61-2.59,14.26-12.31,19.32Z"/>
      <g class="cls-9">
        <polygon class="cls-5" points="139.1 91.57 139.12 91.68 138.98 91.59 139.1 91.57"/>
        <g>
          <path class="cls-5" d="M61.26,109.05l-1.37-.17c-.05-.3-.1-.58-.12-.87l1.49,1.05Z"/>
          <path class="cls-2" d="M61.26,109.05l-1.37-.17c-.05-.3-.1-.58-.12-.87l1.49,1.05Z"/>
        </g>
        <g>
          <path class="cls-5" d="M138.48,91.24l.5.35-.47.08c-.02-.15-.02-.29-.03-.43Z"/>
          <polygon class="cls-5" points="139.1 91.57 139.12 91.68 138.98 91.59 139.1 91.57"/>
          <path class="cls-2" d="M138.48,91.24l.5.35-.47.08c-.02-.15-.02-.29-.03-.43Z"/>
          <polygon class="cls-2" points="139.1 91.57 139.12 91.68 138.98 91.59 139.1 91.57"/>
          <path class="cls-5" d="M138.98,91.59l-.47.08c-.02-.15-.02-.29-.03-.43l.5.35Z"/>
        </g>
      </g>
      <g>
        <rect class="cls-5" x="114.75" y="89.87" width="27.46" height="5.94" transform="translate(-14.17 23.72) rotate(-10)"/>
        <g>
          <circle class="cls-5" cx="88.72" cy="99.85" r="31.18"/>
          <path class="cls-2" d="M87.87,76.41c-.47.09-.93.19-1.4.3-13.38,3.24-22.36,16.28-20.61,29.93.02.15.04.3.06.45.27,1.9-2.49,2.53-3,.68-.24-.85-.43-1.72-.59-2.61-2.62-14.84,7.29-29,22.14-31.62,1.02-.18,2.04-.3,3.05-.37,2.03-.13,2.34,2.84.35,3.22Z"/>
          <g>
            <rect class="cls-5" x="64.77" y="94.37" width="2.19" height="10.7" transform="translate(-53.6 96.47) rotate(-55)"/>
            <rect class="cls-5" x="64.19" y="99.47" width="2.19" height="10.7" transform="translate(-58.02 98.17) rotate(-55)"/>
          </g>
        </g>
        <g>
          <circle class="cls-5" cx="167.68" cy="85.93" r="31.18"/>
          <path class="cls-2" d="M166.82,62.48c-.13.03-.27.05-.4.08-13.88,2.83-23.43,16.17-21.61,30.22.02.13.03.25.05.38.28,1.93-2.5,2.51-3.02.63-.23-.83-.42-1.68-.57-2.54-2.62-14.84,7.29-29,22.14-31.62,1.02-.18,2.04-.3,3.05-.36,2.03-.13,2.35,2.84.35,3.22Z"/>
          <g>
            <rect class="cls-5" x="143.72" y="80.45" width="2.19" height="10.7" transform="translate(-8.53 155.21) rotate(-55)"/>
            <rect class="cls-5" x="143.14" y="85.55" width="2.19" height="10.7" transform="translate(-12.95 156.91) rotate(-55)"/>
          </g>
        </g>
      </g>
    </g>
  </g>
</svg>